<svg xmlns="http://www.w3.org/2000/svg" fill="none" viewBox="0 0 20 20">
  <path d="M.75.75h18.5v18.5H.75V.75z" fill="#1D364D"/>
  <path d="M10.009 15c-.571 0-1.08-.108-1.526-.323a2.664 2.664 0 01-1.06-.899A2.57 2.57 0 017 12.433h1.09c.022.314.12.585.293.813.173.225.4.4.679.523.28.124.59.185.93.185.38 0 .717-.072 1.01-.218a1.7 1.7 0 00.692-.609c.168-.26.251-.56.251-.903 0-.358-.08-.673-.242-.946a1.65 1.65 0 00-.709-.646c-.311-.155-.691-.233-1.141-.233h-.709V9.354h.709c.352 0 .66-.07.925-.21a1.53 1.53 0 00.627-.589c.153-.253.229-.551.229-.893 0-.33-.066-.617-.199-.86a1.42 1.42 0 00-.562-.571 1.683 1.683 0 00-.847-.204c-.306 0-.594.061-.865.185a1.62 1.62 0 00-.657.528c-.17.228-.262.503-.276.827H7.19a2.47 2.47 0 01.42-1.34 2.702 2.702 0 011.028-.904A3.07 3.07 0 0110.043 5c.548 0 1.018.122 1.41.366.391.24.693.56.903.955a2.7 2.7 0 01.316 1.284c0 .548-.132 1.015-.394 1.402-.26.386-.612.654-1.059.803v.076c.56.101.996.363 1.31.784.314.418.471.937.471 1.554 0 .53-.131 1.005-.393 1.426-.26.418-.614.748-1.064.989-.45.24-.96.361-1.534.361z" fill="#fff"/>
  <path d="M.75.75h18.5v18.5H.75V.75z" stroke="#fff" stroke-width="1.5"/>
</svg>
