<svg xmlns="http://www.w3.org/2000/svg" fill="none" viewBox="0 0 54 42">
  <path d="M52.914 41.426v.108h.1a.106.106 0 00.055-.014.048.048 0 00.02-.041.047.047 0 00-.02-.04.097.097 0 00-.054-.014h-.101v.001zm.102-.076a.186.186 0 01.12.035.116.116 0 01.043.095.108.108 0 01-.034.084.165.165 0 01-.097.04l.135.154h-.104l-.124-.153h-.04v.153h-.087v-.408h.19-.002zm-.027.55a.348.348 0 00.314-.208.35.35 0 000-.268.353.353 0 00-.182-.181.354.354 0 00-.267 0 .344.344 0 00-.11.073.349.349 0 000 .486.346.346 0 00.245.1v-.003zm0-.78a.452.452 0 01.412.269.433.433 0 01-.095.481.44.44 0 01-.317.13.447.447 0 01-.415-.616.432.432 0 01.239-.234.447.447 0 01.177-.035l-.001.004zm-41.327-1.578c0-.779.51-1.418 1.344-1.418.797 0 1.335.612 1.335 1.418 0 .806-.538 1.419-1.335 1.419-.833 0-1.344-.64-1.344-1.419zm3.587 0v-2.216h-.963v.54c-.306-.399-.77-.649-1.4-.649-1.241 0-2.215.974-2.215 2.326 0 1.353.973 2.327 2.215 2.327.63 0 1.094-.251 1.4-.65v.538h.962v-2.216zm32.547 0c0-.779.51-1.418 1.344-1.418.798 0 1.334.612 1.334 1.418 0 .806-.536 1.419-1.334 1.419-.834 0-1.344-.64-1.344-1.419zm3.587 0v-3.994h-.964v2.318c-.305-.399-.769-.649-1.399-.649-1.241 0-2.216.974-2.216 2.326 0 1.353.974 2.327 2.216 2.327.63 0 1.094-.251 1.4-.65v.538h.963v-2.216zm-24.179-1.464c.62 0 1.02.39 1.121 1.075h-2.298c.103-.64.491-1.075 1.177-1.075zm.02-.863c-1.299 0-2.207.944-2.207 2.326 0 1.408.945 2.326 2.271 2.326.667 0 1.278-.166 1.816-.62l-.472-.715a2.112 2.112 0 01-1.289.464c-.62 0-1.186-.288-1.325-1.085h3.29c.009-.12.018-.24.018-.37-.01-1.381-.863-2.327-2.103-2.327zm11.629 2.326c0-.78.51-1.419 1.343-1.419.797 0 1.335.612 1.335 1.419 0 .806-.538 1.418-1.334 1.418-.834 0-1.345-.64-1.345-1.418zm3.586 0v-2.215h-.963v.54c-.306-.399-.769-.649-1.399-.649-1.241 0-2.216.974-2.216 2.326 0 1.353.974 2.327 2.216 2.327.63 0 1.093-.251 1.4-.65v.538h.962v-2.217zm-9.026 0c0 1.343.936 2.326 2.363 2.326.667 0 1.112-.149 1.593-.528l-.463-.78c-.362.26-.741.4-1.16.4-.77-.01-1.335-.566-1.335-1.418 0-.853.566-1.409 1.334-1.419.419 0 .798.14 1.161.4l.463-.78c-.482-.38-.926-.528-1.593-.528-1.428 0-2.363.983-2.363 2.327zm12.418-2.327c-.556 0-.918.26-1.168.65v-.538h-.955v4.43h.965v-2.483c0-.733.315-1.14.944-1.14.207-.004.411.034.603.111l.297-.908a2.047 2.047 0 00-.687-.12v-.002zm-25.82.465c-.463-.306-1.102-.464-1.806-.464-1.122 0-1.845.538-1.845 1.418 0 .722.538 1.168 1.528 1.307l.455.065c.529.074.778.213.778.463 0 .343-.35.538-1.01.538-.667 0-1.148-.213-1.473-.463l-.453.75c.529.39 1.196.576 1.918.576 1.28 0 2.02-.603 2.02-1.446 0-.779-.583-1.186-1.547-1.325l-.454-.066c-.417-.054-.75-.138-.75-.435 0-.324.314-.519.843-.519.565 0 1.113.214 1.38.38l.418-.778-.002-.001zm12.429-.463c-.556 0-.918.26-1.167.649v-.539h-.954v4.43h.963v-2.483c0-.733.315-1.14.945-1.14.206-.004.41.034.602.111l.297-.908a2.047 2.047 0 00-.686-.12zm-8.22.11h-1.575v-1.343h-.974v1.343h-.898v.88h.898v2.021c0 1.028.4 1.64 1.539 1.64.418 0 .9-.13 1.205-.342l-.279-.825c-.287.166-.602.25-.852.25-.482 0-.639-.296-.639-.74v-2.002h1.575v-.882zm-14.4 4.43v-2.779c0-1.047-.667-1.751-1.743-1.76-.565-.01-1.149.166-1.557.787-.305-.49-.787-.788-1.464-.788-.473 0-.935.14-1.297.658v-.548h-.964v4.43h.971V39.3c0-.77.427-1.178 1.085-1.178.64 0 .964.417.964 1.168v2.465h.973V39.3c0-.769.445-1.177 1.084-1.177.658 0 .972.417.972 1.168v2.465l.976.002z" fill="#231F20"/>
  <path d="M53.465 27.022v-.648h-.17l-.194.445-.194-.445h-.17v.648h.12v-.488l.183.421h.124l.182-.422v.489h.12-.001zm-1.07 0v-.537h.215v-.11h-.551v.11h.216v.537h.12z" fill="#F79410"/>
  <path d="M34.292 29.8H19.695V3.568h14.598V29.8z" fill="#FF5F00"/>
  <path d="M20.62 16.684a16.656 16.656 0 016.372-13.117A16.61 16.61 0 0016.682 0C7.469 0 0 7.47 0 16.684 0 25.9 7.469 33.368 16.682 33.368a16.61 16.61 0 0010.31-3.567 16.656 16.656 0 01-6.372-13.117z" fill="#EB001B"/>
  <path d="M53.985 16.684c0 9.215-7.468 16.684-16.682 16.684a16.616 16.616 0 01-10.311-3.567 16.654 16.654 0 006.373-13.117 16.654 16.654 0 00-6.373-13.117A16.616 16.616 0 0137.302 0c9.214 0 16.683 7.47 16.683 16.684" fill="#F79E1B"/>
</svg>
