<svg xmlns="http://www.w3.org/2000/svg" fill="none" viewBox="0 0 18 18">
  <g clip-path="url(#mlZAflsLM2a)">
    <path d="M8.125 1.371a.426.426 0 01.786 0l1.76 4.232c.062.147.2.248.36.26l4.567.367c.378.03.531.501.243.748l-3.48 2.981a.426.426 0 00-.137.423l1.063 4.457a.426.426 0 01-.636.463l-3.91-2.39a.426.426 0 00-.445 0l-3.91 2.39a.426.426 0 01-.637-.463l1.063-4.457a.426.426 0 00-.137-.423l-3.48-2.981a.426.426 0 01.243-.748l4.568-.366a.426.426 0 00.359-.261l1.76-4.232z" fill="#FDB022"/>
  </g>
  <defs>
    <clipPath id="mlZAflsLM2a">
      <path fill="#fff" d="M0 0h17.036v17.036H0z"/>
    </clipPath>
  </defs>
</svg>
